<?xml version="1.0" encoding="utf-8"?>
<!-- Generator: Adobe Illustrator 21.1.0, SVG Export Plug-In . SVG Version: 6.00 Build 0)  -->
<svg version="1.1" id="Layer_1" xmlns="http://www.w3.org/2000/svg" xmlns:xlink="http://www.w3.org/1999/xlink" x="0px" y="0px"
	 width="108.4px" height="40.6px" viewBox="0 0 108.4 40.6" style="enable-background:new 0 0 108.4 40.6;" xml:space="preserve">
<style type="text/css">
	.st0{fill:#FFFFFF;}
	.st1{fill:#FBFBFB;}
	.st2{fill:#DA282D;}
</style>
<g>
	<path class="st0" d="M104.5,8.6H33.1c-3-3.4-7.4-5.5-12.3-5.5c-9.1,0-16.6,7.4-16.6,16.6s7.4,16.6,16.6,16.6c4.2,0,8.1-1.6,11-4.2
		h72.8V8.6z"/>
	<g id="layer1">
		<path class="st1" d="M17.7,40.5c-5.3-0.7-10-3.3-13.3-7.4c-1.3-1.6-2.6-4-3.3-5.9c-0.4-1-0.8-2.7-1-3.9c-0.2-1.3-0.2-4.8,0-6.1
			c0.3-2.1,0.9-4,1.9-6c2-4,5.2-7.2,9.2-9.2c2-1,3.9-1.6,6-1.9c1.3-0.2,4.8-0.2,6.1,0c2.1,0.3,4,0.9,6,1.9c5,2.4,8.7,6.8,10.4,12.1
			c1,3.3,1.2,7,0.5,10.4c-1.3,6.1-5.3,11.3-10.9,14c-0.7,0.3-1.6,0.7-2.1,0.9c-1,0.4-2.8,0.8-3.9,1C22.3,40.6,18.8,40.7,17.7,40.5z
			 M22.5,36c1.6-0.2,3.1-0.7,4.6-1.4c4.7-2.3,8-6.7,8.8-12c0.1-0.9,0.2-3.3,0.1-4l-0.1-0.4l-8,8c-4.4,4.4-8.1,8-8.2,8.1
			c-0.3,0.2-1,0.2-1.4,0C18,34.1,7.6,23.8,7.5,23.5c-0.1-0.3-0.1-0.9,0-1.2c0.1-0.3,1.8-2,2.2-2.1c0.3-0.1,0.8-0.1,1.2,0
			c0.2,0.1,1.2,1,2.9,2.7c1.4,1.4,3.2,3.2,4,3.9L19,28l7.4-7.4c4.1-4.1,7.5-7.4,7.6-7.5l0.2-0.1L34,12.6c-2.4-4.2-6.6-7.1-11.5-7.9
			c-1.1-0.2-3.3-0.2-4.4,0c-5.3,0.8-9.7,4.1-12,8.8c-1.1,2.3-1.6,4.3-1.6,6.9S5,25,6.1,27.3c2.5,5.1,7.5,8.5,13.3,8.9
			C20,36.2,21.6,36.2,22.5,36z"/>
		<path class="st1" d="M8.8,19c-0.7-0.3-1-0.9-0.6-1.6C8.4,17.2,8.7,17,9.1,17c1,0.1,1.5,0.7,1.1,1.5C10.1,19,9.5,19.2,8.8,19z
			 M9.9,18.3c0.1-0.1,0.1-0.2,0-0.3c-0.2-0.3-1-0.4-1.2-0.2c-0.1,0.1-0.1,0.2-0.1,0.3c0,0.2,0.5,0.5,0.9,0.5
			C9.7,18.5,9.8,18.5,9.9,18.3z"/>
		<path class="st1" d="M9.7,16.7c-0.5-0.3-0.9-0.5-1-0.5c0,0,0-0.2,0-0.3c0.1-0.2,0.1-0.2,0.5-0.2c0.2,0,0.5,0,0.7,0l0.4-0.1
			l-0.5-0.3C9.6,15.1,9.3,15,9.3,15c-0.1-0.1,0.1-0.5,0.2-0.5c0.1,0,2,1,2,1c0,0-0.1,0.1-0.1,0.3C11.3,16,11.3,16,10.8,16
			c-0.3,0-0.6,0-0.7,0.1c-0.2,0-0.2,0.1,0.3,0.3c0.3,0.1,0.5,0.3,0.5,0.3c0,0-0.2,0.5-0.3,0.5C10.6,17.2,10.2,17,9.7,16.7z"/>
		<path class="st1" d="M10.9,14.6c-0.4-0.3-0.8-0.6-0.8-0.7c-0.1-0.1,0.1-0.5,0.3-0.5c0,0,0.4,0.2,0.8,0.5l0.7,0.5l0.3-0.3
			c0.3-0.4,0.3-0.4,0.6-0.2c0.1,0.1,0.1,0.1-0.1,0.4c-0.1,0.2-0.3,0.4-0.5,0.6c-0.1,0.2-0.3,0.3-0.3,0.3
			C11.7,15.2,11.3,14.9,10.9,14.6z"/>
		<path class="st1" d="M12.1,13.1c-0.4-0.4-0.7-0.8-0.7-0.8c0,0,0.1-0.2,0.2-0.2l0.2-0.2l0.8,0.8l0.8,0.8l-0.2,0.2
			c-0.1,0.1-0.2,0.2-0.3,0.2C12.9,13.9,12.5,13.5,12.1,13.1z"/>
		<path class="st1" d="M12.9,12.4c-0.8-1.1-0.8-1-0.5-1.2l0.2-0.2l0.6,0.3c0.3,0.2,0.6,0.3,0.6,0.3s-0.1-0.2-0.3-0.5l-0.4-0.5
			l0.2-0.2c0.1-0.1,0.2-0.1,0.3-0.1c0.1,0,0.4,0.5,1.2,1.5l0.2,0.3l-0.2,0.2l-0.2,0.2l-0.3-0.1c-0.2-0.1-0.5-0.2-0.7-0.3l-0.4-0.2
			l0.2,0.3c0.1,0.1,0.3,0.4,0.4,0.5l0.2,0.3l-0.2,0.2c-0.1,0.1-0.2,0.2-0.2,0.2C13.5,13.2,13.2,12.9,12.9,12.4z"/>
		<path class="st1" d="M27.9,13.1l-0.2-0.2l0.1-0.7c0.1-0.4,0.1-0.7,0.1-0.7s-0.2,0.2-0.4,0.5c-0.4,0.5-0.5,0.5-0.7,0.2
			c-0.1-0.1-0.2-0.1,0.7-1.3c0.3-0.3,0.5-0.6,0.5-0.6c0,0,0.1,0.1,0.3,0.2c0.2,0.2,0.2,0.1,0.1,1.3l0,0.3l0.4-0.5l0.4-0.5l0.2,0.2
			c0.1,0.1,0.2,0.2,0.2,0.3c-0.1,0.2-1.3,1.7-1.3,1.7C28.1,13.2,28,13.2,27.9,13.1z"/>
		<path class="st1" d="M14.8,10.9c-0.3-0.5-0.5-1-0.5-1c0.1-0.1,1.3-0.7,1.4-0.7c0,0,0.1,0.1,0.2,0.2c0.1,0.2,0.1,0.2-0.3,0.4
			c-0.4,0.2-0.5,0.3-0.3,0.5c0.1,0.1,0.1,0.1,0.4-0.1c0.2-0.1,0.4-0.2,0.4-0.2c0,0,0.1,0.1,0.1,0.2c0.1,0.2,0.1,0.2-0.3,0.3
			c-0.4,0.2-0.4,0.3-0.2,0.5c0.1,0.1,0.1,0.1,0.5-0.1c0.4-0.2,0.4-0.2,0.5-0.1c0.1,0.1,0.1,0.2,0.1,0.2c0,0.1-1.2,0.7-1.4,0.7
			C15.3,11.9,15.1,11.5,14.8,10.9z"/>
		<path class="st1" d="M25.5,11.5l-0.3-0.1l0.1-1.1c0.1-0.6,0.1-1.1,0.1-1.2c0-0.1,0-0.1,0.3,0c0.2,0.1,0.3,0.2,0.3,0.2
			c0,0-0.1,0.4-0.1,0.8l-0.1,0.7l0.2-0.2c0.1-0.1,0.3-0.4,0.5-0.6l0.3-0.4l0.3,0.1c0.1,0.1,0.3,0.2,0.3,0.2c0,0-0.4,0.4-0.8,0.9
			l-0.8,0.8L25.5,11.5z"/>
		<path class="st1" d="M17,11.1c-0.1-0.1-0.1-0.4,0.1-0.5c0.3-0.2,0.6,0.2,0.3,0.4C17.2,11.2,17.1,11.2,17,11.1z"/>
		<path class="st1" d="M24,11c-0.2-0.1-0.1-0.5,0.1-0.5c0.3-0.1,0.5,0.2,0.3,0.5C24.2,11.1,24.2,11.1,24,11z"/>
		<path class="st1" d="M23,10.7c-0.1,0-0.3-0.1-0.3-0.1c0,0-0.3-2.3-0.3-2.4C22.4,8.2,23,8.4,23,8.5c0,0.1,0,0.4,0.1,0.8l0,0.7
			l0.3-0.7c0.2-0.4,0.4-0.7,0.4-0.7c0.1-0.1,0.6,0.1,0.6,0.2c0,0.1-1.1,2-1.1,2C23.3,10.7,23.1,10.7,23,10.7z"/>
		<path class="st1" d="M18,10.6c-0.3-0.1-0.5-0.6-0.5-1c-0.1-0.8,0.3-1.2,1-1.2c0.3,0,0.4,0,0.6,0.2C19.4,8.9,19.4,9,19.2,9
			C19,9.1,18.8,9.1,18.7,9c-0.1-0.1-0.4-0.2-0.5,0c-0.2,0.2,0,1.2,0.3,1.3c0.1,0,0.2,0,0.3,0c0.1,0,0.2-0.1,0.2-0.2
			c0-0.1-0.1-0.2-0.2-0.1c-0.2,0-0.2,0-0.2-0.2c0-0.2,0.1-0.2,0.5-0.3l0.4-0.1l0.1,0.4c0.1,0.6,0.1,0.6-0.3,0.8
			C18.9,10.7,18.3,10.8,18,10.6z"/>
		<path class="st1" d="M20.4,10.4c-0.6-0.4-0.6-1.5-0.1-2c0.6-0.5,1.4-0.2,1.6,0.6c0.1,0.4,0,1-0.3,1.2
			C21.3,10.6,20.7,10.6,20.4,10.4z M21.1,10c0.3-0.1,0.3-1.1,0.1-1.3c-0.2-0.1-0.4-0.1-0.6,0.2c-0.1,0.3-0.1,0.9,0.1,1.1
			C20.9,10.1,20.9,10.1,21.1,10z"/>
		<path class="st1" d="M51.5,31.8c-0.2-0.2-0.2-0.3-0.1-0.5c0.1-0.2,0.4-0.2,0.6-0.1c0.2,0.1,0.1,0.5,0,0.6
			C51.8,32,51.7,32,51.5,31.8z"/>
		<path class="st1" d="M50.9,30.6c-0.8-0.4-1.1-1.2-1.1-2.5c0-0.9,0.2-1.4,0.6-1.8c0.7-0.7,1.9-0.8,2.6-0.1c0.5,0.5,0.7,0.9,0.7,1.9
			c0,1-0.1,1.5-0.4,2C52.8,30.8,51.7,31,50.9,30.6z M52.4,30.1c0.5-0.3,0.6-0.7,0.6-1.8c0-0.9,0-1-0.2-1.3c-0.3-0.5-0.9-0.8-1.5-0.6
			c-0.6,0.2-0.9,0.9-0.9,2c0,0.9,0.2,1.4,0.6,1.6C51.5,30.3,52.1,30.3,52.4,30.1z"/>
		<path class="st1" d="M57.4,30.7c-0.4-0.2-0.7-0.5-0.9-0.9c-0.2-0.3-0.2-0.5-0.2-1.3c0-1.2,0.1-1.6,0.6-2.2
			c0.3-0.3,0.5-0.4,0.8-0.5c1.1-0.3,2.2,0.2,2.4,1.3l0.1,0.3h-0.3c-0.3,0-0.3,0-0.5-0.4c-0.2-0.5-0.5-0.7-1-0.7
			c-0.5,0-0.8,0.2-1.1,0.6c-0.2,0.3-0.2,0.5-0.2,1.1c0,0.9,0.1,1.5,0.4,1.8c0.6,0.7,1.7,0.5,1.9-0.4c0.1-0.3,0.1-0.3,0.4-0.3H60
			L60,29.4c-0.1,0.3-0.3,0.8-0.5,1C59,30.8,58,31,57.4,30.7z"/>
		<path class="st1" d="M61.8,30.6c-0.8-0.4-1.1-1.2-1.1-2.5c0-0.9,0.2-1.4,0.6-1.8c0.7-0.7,1.9-0.8,2.6-0.1c0.5,0.5,0.7,0.9,0.7,1.9
			c0,1-0.1,1.5-0.4,2C63.7,30.8,62.6,31,61.8,30.6z M63.3,30.1c0.5-0.3,0.6-0.7,0.6-1.8c0-0.9,0-1-0.2-1.3c-0.3-0.5-0.9-0.8-1.5-0.6
			c-0.6,0.2-0.9,0.9-0.9,2c0,0.9,0.2,1.4,0.6,1.6C62.4,30.3,63,30.3,63.3,30.1z"/>
		<path class="st1" d="M71.6,30.7c-0.4-0.2-0.9-0.6-1.1-1c-0.2-0.3-0.2-0.6-0.2-1.2c-0.1-1.3,0.2-2.1,1-2.5c0.3-0.2,0.4-0.2,1-0.2
			c0.9,0,1.4,0.3,1.7,1c0.2,0.5,0.2,0.5-0.2,0.5c-0.3,0-0.3,0-0.5-0.3c-0.2-0.4-0.5-0.6-1-0.6c-0.8,0-1.2,0.5-1.3,1.7
			c0,0.9,0.1,1.4,0.4,1.8c0.4,0.5,1.1,0.6,1.7,0.3c0.2-0.1,0.2-0.1,0.2-0.6v-0.5h-0.5h-0.5v-0.3v-0.3h0.9h0.9v0.9
			c0,1.1,0,1.1-0.6,1.4C73.1,30.8,72,30.9,71.6,30.7z"/>
		<path class="st1" d="M86.6,30.7c-0.4-0.1-0.7-0.4-0.9-0.8c-0.1-0.3-0.1-0.5-0.1-2.2v-1.9h0.3h0.3v1.9c0,1.8,0,1.9,0.2,2.1
			c0.3,0.4,1,0.6,1.5,0.3c0.4-0.2,0.4-0.4,0.4-2.5v-1.8h0.3h0.3v0.3c0,0.3,0,0.3,0.1,0.3c0.2,0,0.5-0.3,0.5-0.7
			c0-0.3,0.1-0.3,0.3-0.3c0.3,0,0.3,0,0.3,0.3c0,0.5-0.3,0.9-0.6,1.1c-0.2,0.1-0.4,0.2-0.5,0.2c-0.1,0-0.1,0.1-0.1,1.3
			c0,1,0,1.3-0.1,1.6c-0.2,0.4-0.5,0.7-0.9,0.8C87.8,30.9,87,30.9,86.6,30.7z"/>
		<path class="st1" d="M91.4,30.7c-0.4-0.2-0.8-0.6-1-1c-0.2-0.3-0.2-0.5-0.2-1.4c0-1.1,0.1-1.4,0.5-1.9c0.6-0.7,1.7-0.8,2.5-0.3
			c0.3,0.2,0.3,0.2,0.5,0.1c0.1-0.1,0.2-0.2,0.3-0.5c0.1-0.3,0.1-0.3,0.4-0.3h0.3l-0.1,0.3c-0.1,0.5-0.2,0.7-0.5,0.9
			c-0.1,0.1-0.3,0.2-0.3,0.2s0.1,0.2,0.1,0.4c0.1,0.3,0.1,0.6,0.1,1.3c0,0.8-0.1,1-0.2,1.3c-0.2,0.5-0.7,0.8-1.1,1
			C92.4,30.9,91.7,30.8,91.4,30.7z M93,30c0.4-0.4,0.5-0.7,0.4-1.7c0-1-0.1-1.3-0.6-1.6c-0.2-0.1-0.3-0.2-0.7-0.2
			c-0.5,0-0.8,0.2-1.1,0.7c-0.2,0.3-0.2,0.4-0.2,1.2c0,0.8,0,0.9,0.2,1.3c0.3,0.5,0.6,0.7,1.1,0.7C92.7,30.2,92.8,30.1,93,30z"/>
		<path class="st1" d="M101.2,30.7c-0.4-0.2-0.9-0.6-1.1-1c-0.2-0.3-0.2-0.6-0.2-1.2c-0.1-1.3,0.2-2.1,1-2.5c0.3-0.2,0.4-0.2,1-0.2
			c0.9,0,1.4,0.3,1.7,1c0.2,0.5,0.2,0.5-0.2,0.5c-0.3,0-0.3,0-0.5-0.3c-0.2-0.4-0.5-0.6-1-0.6c-0.8,0-1.2,0.5-1.3,1.7
			c0,0.9,0.1,1.4,0.4,1.8c0.4,0.5,1.1,0.6,1.7,0.3C103,30,103,30,103,29.5v-0.5h-0.5h-0.5v-0.3v-0.3h0.9h0.9v0.9
			c0,1.1,0,1.1-0.6,1.4C102.7,30.8,101.6,30.9,101.2,30.7z"/>
		<path class="st1" d="M45.7,28.3v-2.5l1.1,0c0.9,0,1.2,0.1,1.4,0.2c0.4,0.2,0.6,0.5,0.6,1.1c0,0.5-0.1,0.8-0.5,1
			c-0.1,0.1-0.2,0.1-0.1,0.1c0.2,0,0.6,0.4,0.7,0.8c0.2,0.6-0.1,1.3-0.7,1.6c-0.3,0.2-0.5,0.2-1.5,0.2h-1.1V28.3z M48.1,30
			c0.2-0.1,0.4-0.6,0.3-0.8c0-0.1,0-0.2-0.1-0.3c-0.1-0.3-0.4-0.4-1.2-0.4h-0.7v0.9v0.9l0.7,0C47.7,30.2,47.9,30.1,48.1,30z
			 M47.9,27.8c0.5-0.3,0.5-1,0-1.3c-0.1,0-0.5-0.1-0.8-0.1h-0.7v0.7v0.7H47C47.4,27.9,47.7,27.9,47.9,27.8z"/>
		<path class="st1" d="M65.6,28.3v-2.5l0.4,0l0.4,0l1.2,1.8l1.2,1.8l0-1.8l0-1.8H69h0.3v2.5v2.5l-0.4,0l-0.4,0l-1.2-1.8l-1.2-1.8
			l0,1.8l0,1.8h-0.3h-0.3V28.3z"/>
		<path class="st1" d="M77.8,28.6v-2.2h-0.8h-0.8v-0.3v-0.3h1.9h1.9v0.3v0.3h-0.8h-0.8v2.2v2.2h-0.3h-0.3V28.6z"/>
		<path class="st1" d="M80.8,28.3v-2.5h0.3h0.3v1v1h1.2h1.2v-1v-1h0.3h0.3v2.5v2.5h-0.3h-0.3v-1.1v-1.1h-1.2h-1.2v1.1v1.1h-0.3h-0.3
			V28.3z"/>
		<path class="st1" d="M95.1,28.3v-2.5l0.4,0l0.4,0l1.2,1.8l1.2,1.8l0-1.8l0-1.8h0.3h0.3v2.5v2.5l-0.4,0l-0.4,0L97,28.9l-1.2-1.8
			l0,1.8l0,1.8h-0.3h-0.3V28.3z"/>
		<path class="st1" d="M50.8,25.4c0-0.1,0.2-0.3,0.4-0.5c0.5-0.5,0.7-0.5,1.2,0.1c0.2,0.3,0.4,0.5,0.4,0.5c0,0-0.1,0-0.2,0
			c-0.2,0-0.3-0.1-0.5-0.3L51.8,25l-0.2,0.3c-0.2,0.2-0.3,0.3-0.5,0.3C50.8,25.5,50.8,25.5,50.8,25.4z"/>
		<path class="st1" d="M61.7,25.4c0-0.1,0.2-0.3,0.4-0.5c0.5-0.5,0.7-0.5,1.2,0.1c0.2,0.3,0.4,0.5,0.4,0.5c0,0-0.1,0-0.2,0
			c-0.2,0-0.3-0.1-0.5-0.3L62.7,25l-0.2,0.3c-0.2,0.2-0.3,0.3-0.5,0.3C61.7,25.5,61.6,25.5,61.7,25.4z"/>
		<path class="st1" d="M45.7,23.2V23h28.9h28.9v0.3v0.3H74.7H45.7V23.2z"/>
		<path class="st1" d="M83.8,20.9c-0.7-0.2-1.1-0.6-1.4-1.3c-0.2-0.4-0.2-0.4-0.2-3.6c0-3,0-3.2,0.1-3.6c0.2-0.5,0.6-1,1.1-1.2
			c0.4-0.2,0.5-0.2,1.4-0.2c0.9,0,1.1,0,1.4,0.2c0.5,0.2,0.8,0.6,1,0.9c0.2,0.4,0.3,1.1,0.3,1.8l0,0.5h-0.9h-0.9l0-0.8
			c-0.1-0.9-0.1-1-0.4-1.1c-0.5-0.2-0.9-0.1-1.2,0.1L84.1,13v3c0,2.1,0,3.1,0.1,3.2c0.1,0.2,0.4,0.4,0.9,0.4c0.7,0,0.8-0.2,0.8-1.6
			v-1.1h-0.4h-0.4v-0.7v-0.7h1.3h1.3l0,1.9c0,2.1-0.1,2.5-0.7,3c-0.5,0.5-0.9,0.6-2,0.7C84.4,21,84,21,83.8,20.9z"/>
		<path class="st1" d="M45.6,18.8v-2.1h-0.3H45v-0.6v-0.6h0.3h0.3v-2.2v-2.2h1.8c2.2,0,2.6,0.1,3.2,0.7c0.6,0.6,0.6,0.7,0.6,4.2
			s0,3.6-0.6,4.2c-0.6,0.6-1,0.7-3.2,0.7h-1.8V18.8z M49,19.4c0.1-0.1,0.2-0.2,0.2-0.3c0.1-0.3,0.1-5.9,0-6.1
			c-0.1-0.3-0.3-0.4-1.1-0.4l-0.7,0V14v1.5H48h0.5v0.6v0.6H48h-0.5v1.4v1.4l0.7,0C48.6,19.5,49,19.5,49,19.4z"/>
		<path class="st1" d="M51.9,20.9c0,0,1.6-8.6,1.8-9.4l0.1-0.4l1.4,0l1.4,0l0.9,4.7c0.5,2.6,0.9,4.8,0.9,4.9c0,0.2,0,0.2-0.9,0.2
			c-0.9,0-0.9,0-1-0.2c0-0.1-0.1-0.5-0.2-0.9l-0.1-0.7H55h-1.1l-0.1,0.9l-0.2,0.9l-0.9,0C52.3,21,51.9,20.9,51.9,20.9z M55.8,17.7
			c0,0-0.2-1.1-0.4-2.4L55,13l-0.4,2.3c-0.2,1.2-0.4,2.3-0.4,2.4c0,0.1,0.2,0.1,0.8,0.1C55.5,17.7,55.8,17.7,55.8,17.7z"/>
		<path class="st1" d="M61.7,18.8v-2.1h-0.3h-0.3v-0.6v-0.6h0.3h0.3v-2.2v-2.2h1.8c2.2,0,2.6,0.1,3.2,0.7c0.6,0.6,0.6,0.7,0.6,4.2
			s0,3.6-0.6,4.2c-0.6,0.6-1,0.7-3.2,0.7h-1.8V18.8z M65.2,19.4c0.1-0.1,0.2-0.2,0.2-0.3c0.1-0.3,0.1-5.9,0-6.1
			c-0.1-0.3-0.3-0.4-1.1-0.4l-0.7,0V14v1.5h0.5h0.5v0.6v0.6h-0.5h-0.5v1.4v1.4l0.7,0C64.7,19.5,65.1,19.5,65.2,19.4z"/>
		<path class="st1" d="M68,20.8c0-0.1,0.4-2.2,0.9-4.7c0.5-2.5,0.9-4.6,0.9-4.7c0-0.2,0.1-0.2,1.4-0.2h1.4l0.9,4.8
			c0.5,2.6,0.9,4.8,0.9,4.9c0,0.1-0.2,0.1-0.9,0.1c-0.8,0-0.9,0-1-0.1c0-0.1-0.3-1.5-0.3-1.6c0,0-0.5,0-1.1,0l-1.1,0l-0.2,0.9
			L69.7,21h-0.9h-0.9L68,20.8z M71.9,17.7c0-0.1-0.7-4.4-0.8-4.5c0-0.1-0.8,4.5-0.8,4.6c0,0,0.4,0.1,0.8,0.1
			C71.8,17.8,71.9,17.8,71.9,17.7z"/>
		<path class="st1" d="M75.2,16.1v-4.9h1.2h1.2l0.9,2.8l0.9,2.8l0-2.8l0-2.8h0.8h0.8v4.9V21h-1h-1L78,17.6L77,14.2l0,3.4l0,3.4h-0.8
			h-0.8V16.1z"/>
		<path class="st1" d="M91.4,16.1v-4.9h1h1l0,2l0,2l1.1-2l1.1-2h0.9h0.9l-0.1,0.2c-0.1,0.1-0.6,1.1-1.2,2.1c-0.6,1.1-1.1,2-1.1,2.1
			c0,0,0.6,1.3,1.2,2.7c0.7,1.5,1.2,2.7,1.2,2.7c0,0-0.4,0-1,0l-1,0L94.7,19l-0.9-1.9l-0.2,0.4l-0.2,0.4v1.5V21h-1h-1V16.1z"/>
		<path class="st1" d="M100,19.3v-1.7l-1.1-3.2c-0.6-1.8-1.1-3.2-1.1-3.2c0,0,0.4-0.1,1-0.1h1l0.4,1.2c0.2,0.7,0.5,1.6,0.7,2.2
			c0.2,0.5,0.3,0.9,0.3,0.9c0,0,0.3-1,0.7-2.1s0.7-2.1,0.7-2.1c0,0,0.4,0,0.9,0l0.9,0l-1.1,3.2l-1.1,3.2v1.6V21h-1h-1V19.3z"/>
		<path class="st1" d="M53.4,10.5c-0.5-0.3-0.5-0.3-0.3-0.7c0.4-0.6,1.1-0.8,2-0.4c0.7,0.2,0.9,0.3,1.2,0l0.2-0.2L57,9.4
			c0.2,0.1,0.4,0.3,0.4,0.3c0,0.2-0.4,0.7-0.7,0.8c-0.5,0.2-0.9,0.2-1.5,0c-0.7-0.3-1-0.3-1.3,0c-0.1,0.1-0.2,0.2-0.2,0.2
			S53.6,10.6,53.4,10.5z"/>
		<path class="st1" d="M70.2,10.6c-0.4-0.2-0.7-0.5-0.8-0.9c-0.1-0.5-0.1-0.6,0.5-0.6h0.6l0.1,0.3c0.1,0.3,0.5,0.5,1,0.3
			c0.3-0.1,0.3-0.1,0.4-0.3l0.1-0.3h0.6c0.5,0,0.6,0,0.6,0.2c0,0.6-0.5,1.2-1.1,1.4C71.5,10.8,70.5,10.7,70.2,10.6z"/>
		<path class="st1" d="M100.1,10.7c0,0,0.2-0.4,0.5-0.8l0.5-0.7h0.9l0.9,0l-0.4,0.3c-0.2,0.2-0.6,0.5-0.9,0.8l-0.5,0.4h-0.6
			C100.3,10.7,100.1,10.7,100.1,10.7z"/>
	</g>
	<path class="st2" d="M19.3,36.2c-5.8-0.4-10.8-3.8-13.3-8.9c-0.7-1.6-1.2-3-1.4-4.7c-0.2-1.1-0.2-3.3,0-4.4c0.8-5.3,4.1-9.7,8.8-12
		c2.3-1.1,4.3-1.6,6.9-1.6s4.6,0.5,6.9,1.6c2.9,1.4,5.3,3.7,6.9,6.4l0.2,0.4l-0.2,0.1c-0.1,0-3.5,3.4-7.6,7.5L19,28l-1.3-1.3
		c-0.7-0.7-2.5-2.5-4-3.9c-1.8-1.7-2.7-2.6-2.9-2.7c-0.4-0.1-0.8-0.1-1.2,0c-0.4,0.2-2,1.8-2.2,2.1c-0.1,0.4-0.1,0.9,0,1.2
		C7.6,23.8,18,34.1,18.3,34.3c0.3,0.2,1,0.2,1.4,0c0.1-0.1,3.8-3.7,8.2-8.1l8-8l0.1,0.4c0.1,0.7,0.1,3.1-0.1,4
		c-0.8,5.3-4.1,9.7-8.8,12c-1.6,0.7-3,1.2-4.6,1.4C21.6,36.2,20,36.2,19.3,36.2z M9.9,19c0.4-0.3,0.6-0.9,0.3-1.4
		C10,17.1,9,16.9,8.6,17.1c-0.4,0.2-0.6,0.7-0.5,1.1C8.3,18.9,9.3,19.3,9.9,19z M10.8,16.9c0.1-0.1,0.1-0.2,0.1-0.3
		c0,0-0.2-0.1-0.5-0.3c-0.5-0.3-0.5-0.3-0.3-0.3c0.1,0,0.4-0.1,0.7-0.1c0.5,0,0.5,0,0.6-0.2c0.1-0.1,0.1-0.2,0.1-0.3c0,0-1.9-1-2-1
		c-0.1,0-0.3,0.4-0.2,0.5c0,0,0.3,0.2,0.5,0.3l0.5,0.3L10,15.6c-0.2,0-0.5,0-0.7,0c-0.3,0-0.4,0-0.5,0.2c-0.1,0.1-0.1,0.3,0,0.3
		c0.1,0.1,1.8,1,1.9,1C10.7,17.2,10.8,17.1,10.8,16.9z M12,14.9c0.1-0.2,0.3-0.4,0.5-0.6c0.2-0.3,0.2-0.3,0.1-0.4
		c-0.2-0.2-0.3-0.1-0.6,0.2l-0.3,0.3l-0.7-0.5c-0.4-0.3-0.7-0.5-0.8-0.5c-0.1,0-0.3,0.4-0.3,0.5c0.2,0.2,1.6,1.3,1.7,1.3
		C11.8,15.2,11.9,15,12,14.9z M13.1,13.7l0.2-0.2l-0.8-0.8l-0.8-0.8L11.5,12c-0.1,0.1-0.2,0.2-0.2,0.2c0,0.1,1.5,1.6,1.6,1.6
		C12.9,13.9,13,13.8,13.1,13.7z M13.8,13.1l0.2-0.2l-0.2-0.3c-0.1-0.1-0.3-0.4-0.4-0.5l-0.2-0.3l0.4,0.2c0.2,0.1,0.5,0.2,0.7,0.3
		l0.3,0.1l0.2-0.2l0.2-0.2l-0.2-0.3c-0.7-1-1.1-1.5-1.2-1.5c0,0-0.2,0.1-0.3,0.1l-0.2,0.2l0.4,0.5c0.2,0.3,0.3,0.5,0.3,0.5
		s-0.3-0.1-0.6-0.3l-0.6-0.3l-0.2,0.2c-0.2,0.1-0.2,0.2-0.2,0.3c0.1,0.2,1.3,1.7,1.3,1.7C13.5,13.2,13.7,13.2,13.8,13.1z M28.8,12.4
		c0.3-0.4,0.6-0.9,0.7-0.9c0-0.1,0-0.2-0.2-0.3l-0.2-0.2l-0.4,0.5l-0.4,0.5l0-0.3c0.2-1.2,0.2-1.1-0.1-1.3c-0.1-0.1-0.2-0.2-0.3-0.2
		c0,0-0.3,0.3-0.5,0.6c-0.9,1.2-0.8,1.1-0.7,1.3c0.3,0.3,0.3,0.3,0.7-0.2c0.2-0.3,0.4-0.5,0.4-0.5s0,0.3-0.1,0.7l-0.1,0.7l0.2,0.2
		c0.1,0.1,0.2,0.2,0.2,0.2C28.2,13.2,28.5,12.9,28.8,12.4z M16.1,11.6c0.4-0.2,0.7-0.4,0.7-0.4s0-0.1-0.1-0.2
		c-0.1-0.1-0.1-0.1-0.5,0.1c-0.4,0.2-0.4,0.2-0.5,0.1c-0.2-0.2-0.1-0.3,0.2-0.5c0.3-0.2,0.3-0.2,0.3-0.3c0-0.1-0.1-0.2-0.1-0.2
		c0,0-0.2,0.1-0.4,0.2c-0.3,0.1-0.4,0.2-0.4,0.1c-0.1-0.2-0.1-0.3,0.3-0.5c0.4-0.2,0.4-0.2,0.3-0.4c0-0.1-0.1-0.2-0.2-0.2
		c-0.1,0-1.3,0.6-1.4,0.7c0,0,0.9,2,1,2C15.4,11.9,15.7,11.8,16.1,11.6z M27.4,10c0,0-0.1-0.1-0.3-0.2l-0.3-0.1l-0.3,0.4
		c-0.2,0.2-0.4,0.5-0.5,0.6l-0.2,0.2l0.1-0.7c0.1-0.4,0.1-0.8,0.1-0.8c0,0-0.1-0.1-0.3-0.2c-0.3-0.1-0.3-0.1-0.3,0
		c0,0.1-0.1,0.6-0.1,1.2l-0.1,1.1l0.3,0.1l0.3,0.1l0.8-0.8C27.1,10.4,27.4,10,27.4,10z M17.4,11c0.1-0.2,0.1-0.3-0.1-0.4
		c-0.2-0.1-0.4,0-0.4,0.3C16.8,11.1,17.2,11.3,17.4,11z M24.4,11c0.2-0.2,0.1-0.5-0.3-0.5c-0.2,0-0.3,0.4-0.1,0.5
		C24.2,11.1,24.2,11.1,24.4,11z M23.9,9.7c0.3-0.5,0.6-1,0.6-1c0-0.1-0.5-0.2-0.6-0.2c0,0-0.2,0.3-0.4,0.7L23.1,10l0-0.7
		c0-0.4-0.1-0.7-0.1-0.8c0-0.1-0.6-0.3-0.6-0.2c0,0,0.3,2.3,0.3,2.4c0,0,0.5,0.1,0.6,0.1C23.3,10.7,23.6,10.3,23.9,9.7z M19.2,10.5
		c0.4-0.2,0.4-0.3,0.3-0.8l-0.1-0.4L19,9.3c-0.4,0.1-0.4,0.1-0.5,0.3c0,0.2,0,0.2,0.2,0.2c0.2,0,0.2,0,0.2,0.1c0,0.1,0,0.2-0.2,0.2
		c-0.1,0-0.3,0-0.3,0c-0.3-0.1-0.5-1.1-0.3-1.3c0.1-0.1,0.4-0.1,0.5,0C18.8,9.1,19,9.1,19.2,9c0.2-0.1,0.2-0.1-0.1-0.4
		c-0.2-0.2-0.2-0.2-0.6-0.2c-0.8,0-1.1,0.4-1,1.2c0,0.5,0.3,0.9,0.5,1C18.3,10.8,18.9,10.7,19.2,10.5z M21.6,10.3
		c0.1-0.1,0.2-0.4,0.3-0.6C22,9,21.8,8.5,21.3,8.3c-0.7-0.3-1.4,0.3-1.4,1.1c0,0.4,0.2,0.8,0.5,1C20.7,10.6,21.3,10.6,21.6,10.3z"/>
	<path class="st2" d="M8.9,18.3c-0.3-0.1-0.3-0.2-0.3-0.3c0-0.1,0-0.2,0.1-0.3c0.2-0.2,1,0,1.2,0.2c0.1,0.1,0.1,0.2,0,0.3
		c-0.1,0.2-0.1,0.2-0.4,0.2C9.3,18.5,9,18.4,8.9,18.3z"/>
	<path class="st2" d="M20.7,10c-0.2-0.1-0.2-0.8-0.1-1.1c0.1-0.2,0.4-0.3,0.6-0.2c0.2,0.2,0.2,1.2-0.1,1.3
		C20.9,10.1,20.9,10.1,20.7,10z"/>
	<path class="st2" d="M36.5,32.7c0,0,0.1-0.2,0.2-0.3c0.4-0.5,1.2-1.7,1.6-2.5c2.2-4.2,2.9-9.2,1.9-13.9c-0.5-2.5-1.6-5.1-3.1-7.2
		l-0.5-0.7l34.3,0c31.1,0,34.3,0,34.7,0.1c0.7,0.2,1.2,0.5,1.7,1c0.5,0.5,0.8,1,1,1.7c0.1,0.4,0.1,1.4,0.1,9.6s0,9.2-0.1,9.6
		c-0.2,0.7-0.5,1.2-1,1.7c-0.5,0.5-1,0.8-1.7,1c-0.4,0.1-3.4,0.1-34.8,0.1C51.9,32.8,36.5,32.7,36.5,32.7z M52,31.9
		c0.2-0.1,0.2-0.5,0-0.6c-0.2-0.1-0.5-0.1-0.6,0.1c-0.1,0.2-0.1,0.3,0.1,0.5C51.7,32,51.8,32,52,31.9z M52.7,30.7
		c0.5-0.2,0.8-0.7,1-1.3c0.2-0.6,0.1-2-0.1-2.5c-0.5-1-1.7-1.4-2.6-0.9c-0.7,0.4-1,1-1.1,2.2c0,1,0.1,1.5,0.4,2
		C50.8,30.8,51.8,31,52.7,30.7z M59,30.7c0.2-0.1,0.4-0.2,0.5-0.3c0.2-0.2,0.4-0.6,0.5-1l0.1-0.3h-0.3c-0.3,0-0.3,0-0.4,0.3
		c-0.2,0.8-1.3,1.1-1.9,0.4c-0.3-0.3-0.4-0.9-0.4-1.8c0-0.6,0.1-0.8,0.2-1.1c0.2-0.4,0.6-0.6,1.1-0.6c0.5,0,0.8,0.2,1,0.7
		c0.1,0.4,0.1,0.4,0.5,0.4H60L60,27.2c-0.2-1.1-1.2-1.6-2.4-1.3c-0.3,0.1-0.5,0.2-0.8,0.5c-0.5,0.5-0.6,1-0.6,2.2
		c0,0.8,0.1,0.9,0.2,1.3c0.2,0.4,0.6,0.8,0.9,0.9C57.8,30.9,58.6,30.9,59,30.7z M63.5,30.7c0.5-0.2,0.8-0.7,1-1.3
		c0.2-0.6,0.1-2-0.1-2.5c-0.5-1-1.7-1.4-2.6-0.9c-0.7,0.4-1,1-1.1,2.2c0,1,0.1,1.5,0.4,2C61.7,30.8,62.7,31,63.5,30.7z M73.4,30.7
		c0.6-0.3,0.6-0.4,0.6-1.4v-0.9h-0.9h-0.9v0.3v0.3h0.5h0.5v0.5c0,0.5,0,0.5-0.2,0.6c-0.6,0.3-1.3,0.2-1.7-0.3
		c-0.3-0.4-0.5-0.9-0.4-1.8c0.1-1.2,0.4-1.7,1.3-1.7c0.5,0,0.9,0.2,1,0.6c0.1,0.3,0.2,0.3,0.5,0.3c0.4,0,0.4-0.1,0.2-0.5
		c-0.3-0.7-0.8-1-1.7-1c-0.5,0-0.7,0-1,0.2c-0.7,0.4-1,1.2-1,2.5c0,0.6,0.1,0.8,0.2,1.2c0.2,0.5,0.6,0.9,1.1,1
		C72,30.9,73.1,30.8,73.4,30.7z M88.1,30.7c0.4-0.2,0.7-0.5,0.9-0.8c0.1-0.3,0.1-0.5,0.1-1.6c0-1.1,0-1.3,0.1-1.3
		c0.1,0,0.3-0.1,0.5-0.2c0.4-0.2,0.6-0.6,0.6-1.1c0-0.3,0-0.3-0.3-0.3c-0.3,0-0.3,0-0.3,0.3c-0.1,0.3-0.3,0.7-0.5,0.7
		c-0.1,0-0.1-0.1-0.1-0.3v-0.3h-0.3h-0.3v1.8c0,2,0,2.3-0.4,2.5c-0.6,0.3-1.2,0.2-1.5-0.3c-0.2-0.3-0.2-0.3-0.2-2.1v-1.9h-0.3h-0.3
		v1.9c0,1.7,0,1.9,0.1,2.2c0.2,0.3,0.5,0.7,0.9,0.8C87,30.9,87.8,30.9,88.1,30.7z M92.8,30.8c0.4-0.1,0.8-0.5,1.1-1
		c0.2-0.3,0.2-0.5,0.2-1.3c0-0.7,0-1-0.1-1.3c-0.1-0.2-0.1-0.4-0.1-0.4s0.1-0.1,0.3-0.2c0.3-0.2,0.5-0.5,0.5-0.9l0.1-0.3h-0.3
		c-0.3,0-0.3,0-0.4,0.3c-0.1,0.2-0.2,0.4-0.3,0.5c-0.2,0.1-0.2,0.1-0.5-0.1c-0.8-0.6-1.9-0.4-2.5,0.3c-0.4,0.5-0.5,0.9-0.5,1.9
		c0,0.8,0,1,0.2,1.4C90.8,30.6,91.8,31,92.8,30.8z M103.1,30.7c0.6-0.3,0.6-0.4,0.6-1.4v-0.9h-0.9h-0.9v0.3v0.3h0.5h0.5v0.5
		c0,0.5,0,0.5-0.2,0.6c-0.6,0.3-1.3,0.2-1.7-0.3c-0.3-0.4-0.5-0.9-0.4-1.8c0.1-1.2,0.4-1.7,1.3-1.7c0.5,0,0.9,0.2,1,0.6
		c0.1,0.3,0.2,0.3,0.5,0.3c0.4,0,0.4-0.1,0.2-0.5c-0.3-0.7-0.8-1-1.7-1c-0.5,0-0.7,0-1,0.2c-0.7,0.4-1,1.2-1,2.5
		c0,0.6,0.1,0.8,0.2,1.2c0.2,0.5,0.6,0.9,1.1,1C101.6,30.9,102.7,30.8,103.1,30.7z M48.4,30.6c0.6-0.3,0.9-1,0.7-1.6
		c-0.1-0.3-0.5-0.8-0.7-0.8c-0.1,0-0.1,0,0.1-0.1c0.4-0.2,0.5-0.5,0.5-1c0-0.6-0.2-0.9-0.6-1.1c-0.2-0.1-0.5-0.2-1.4-0.2l-1.1,0v2.5
		v2.5h1.1C47.9,30.8,48,30.7,48.4,30.6z M66.3,28.9l0-1.8l1.2,1.8l1.2,1.8l0.4,0l0.4,0v-2.5v-2.5H69h-0.3l0,1.8l0,1.8l-1.2-1.8
		l-1.2-1.8l-0.4,0l-0.4,0v2.5v2.5h0.3h0.3L66.3,28.9z M78.5,28.6v-2.2h0.8h0.8v-0.3v-0.3h-1.9h-1.9v0.3v0.3h0.8h0.8v2.2v2.2h0.3h0.3
		V28.6z M81.5,29.6v-1.1h1.2h1.2v1.1v1.1h0.3h0.3v-2.5v-2.5h-0.3h-0.3v1v1h-1.2h-1.2v-1v-1h-0.3h-0.3v2.5v2.5h0.3h0.3V29.6z
		 M95.8,28.9l0-1.8l1.2,1.8l1.2,1.8l0.4,0l0.4,0v-2.5v-2.5h-0.3h-0.3l0,1.8l0,1.8L97,27.7l-1.2-1.8l-0.4,0l-0.4,0v2.5v2.5h0.3h0.3
		L95.8,28.9z M51.6,25.2l0.2-0.3l0.3,0.3c0.2,0.2,0.4,0.3,0.5,0.3c0.1,0,0.2,0,0.2,0c0,0-0.2-0.2-0.4-0.5c-0.5-0.6-0.7-0.6-1.2-0.1
		c-0.5,0.6-0.5,0.6-0.2,0.6C51.3,25.5,51.4,25.5,51.6,25.2z M62.4,25.2l0.2-0.3l0.3,0.3c0.2,0.2,0.4,0.3,0.5,0.3c0.1,0,0.2,0,0.2,0
		c0,0-0.2-0.2-0.4-0.5c-0.5-0.6-0.7-0.6-1.2-0.1c-0.5,0.6-0.5,0.6-0.2,0.6C62.2,25.5,62.2,25.5,62.4,25.2z M103.6,23.2V23H74.7H45.7
		v0.3v0.3h28.9h28.9V23.2z M86.4,20.8c0.5-0.2,0.9-0.7,1.1-1.2c0.2-0.4,0.2-0.6,0.2-2.3l0-1.9h-1.3h-1.3v0.7v0.7h0.4h0.4V18
		c0,1.4-0.1,1.6-0.8,1.6c-0.4,0-0.8-0.1-0.9-0.4c-0.1-0.1-0.1-1.1-0.1-3.2v-3l0.2-0.2c0.3-0.3,0.7-0.3,1.2-0.1
		c0.3,0.1,0.3,0.2,0.4,1.1l0,0.8h0.9h0.9l0-0.5c0-0.6-0.1-1.4-0.3-1.8c-0.2-0.4-0.6-0.7-1-0.9c-0.3-0.2-0.5-0.2-1.4-0.2
		c-0.9,0-1.1,0-1.4,0.2c-0.5,0.2-1,0.7-1.1,1.2c-0.1,0.3-0.1,0.6-0.1,3.6c0,3.2,0,3.2,0.2,3.6c0.5,1,1.2,1.4,2.7,1.3
		C85.8,21,86,21,86.4,20.8z M49.8,20.8c0.6-0.2,1.1-0.7,1.3-1.3c0.1-0.4,0.1-0.7,0.1-3.5c0-3.5,0-3.6-0.6-4.2
		c-0.6-0.6-1-0.7-3.2-0.7h-1.8v2.2v2.2h-0.3H45v0.6v0.6h0.3h0.3v2.1V21h1.8C49.1,21,49.3,20.9,49.8,20.8z M53.8,20.1l0.1-0.9H55h1.1
		l0.1,0.7c0.1,0.4,0.1,0.8,0.2,0.9c0,0.2,0.1,0.2,1,0.2c0.9,0,0.9,0,0.9-0.2c0-0.1-0.4-2.3-0.9-4.9l-0.9-4.7l-1.4,0l-1.4,0l-0.1,0.4
		c-0.2,0.8-1.8,9.4-1.8,9.4c0,0,0.4,0,0.9,0l0.9,0L53.8,20.1z M65.9,20.8c0.6-0.2,1.1-0.7,1.3-1.3c0.1-0.4,0.1-0.7,0.1-3.5
		c0-3.5,0-3.6-0.6-4.2c-0.6-0.6-1-0.7-3.2-0.7h-1.8v2.2v2.2h-0.3h-0.3v0.6v0.6h0.3h0.3v2.1V21h1.8C65.2,21,65.5,20.9,65.9,20.8z
		 M69.9,20.1l0.2-0.9l1.1,0c0.6,0,1.1,0,1.1,0c0,0.1,0.2,1.4,0.3,1.6c0,0.1,0.2,0.1,1,0.1c0.7,0,0.9,0,0.9-0.1
		c0-0.1-0.4-2.3-0.9-4.9l-0.9-4.8h-1.4c-1.4,0-1.4,0-1.4,0.2c0,0.1-0.4,2.2-0.9,4.7c-0.5,2.5-0.9,4.6-0.9,4.7l0,0.2h0.9h0.9
		L69.9,20.1z M76.9,17.6l0-3.4l1.1,3.4l1.1,3.4h1h1v-4.9v-4.9h-0.8h-0.8l0,2.8l0,2.8l-0.9-2.8l-0.9-2.8h-1.2h-1.2v4.9V21h0.8h0.8
		L76.9,17.6z M93.3,19.5v-1.5l0.2-0.4l0.2-0.4l0.9,1.9l0.9,1.9l1,0c0.5,0,1,0,1,0c0,0-0.6-1.2-1.2-2.7c-0.7-1.5-1.2-2.7-1.2-2.7
		c0,0,0.5-1,1.1-2.1c0.6-1.1,1.2-2.1,1.2-2.1l0.1-0.2h-0.9h-0.9l-1.1,2l-1.1,2l0-2l0-2h-1h-1v4.9V21h1h1V19.5z M101.9,19.3v-1.6
		l1.1-3.2l1.1-3.2l-0.9,0c-0.5,0-0.9,0-0.9,0c0,0-0.3,1-0.7,2.1s-0.7,2.1-0.7,2.1c0,0-0.2-0.4-0.3-0.9c-0.2-0.5-0.5-1.5-0.7-2.2
		l-0.4-1.2h-1c-0.5,0-1,0-1,0.1c0,0,0.5,1.5,1.1,3.2l1.1,3.2v1.7V21h1h1V19.3z M53.9,10.5c0.3-0.3,0.6-0.2,1.3,0
		c0.6,0.2,1,0.2,1.5,0c0.3-0.1,0.7-0.6,0.7-0.8c0,0-0.2-0.2-0.4-0.3l-0.4-0.2l-0.2,0.2c-0.3,0.2-0.5,0.2-1.2,0
		c-0.6-0.2-1.1-0.2-1.5,0c-0.3,0.2-0.7,0.7-0.6,0.8c0.1,0.1,0.8,0.5,0.8,0.5C53.7,10.7,53.8,10.6,53.9,10.5z M72,10.6
		c0.6-0.2,1.1-0.8,1.1-1.4c0-0.2,0-0.2-0.6-0.2h-0.6l-0.1,0.3c-0.1,0.2-0.1,0.3-0.4,0.3c-0.5,0.1-0.9,0-1-0.3l-0.1-0.3h-0.6
		c-0.6,0-0.6,0-0.5,0.6c0.1,0.4,0.4,0.7,0.8,0.9C70.5,10.7,71.5,10.8,72,10.6z M101.8,10.3c0.3-0.2,0.7-0.6,0.9-0.8l0.4-0.3l-0.9,0
		h-0.9l-0.5,0.7c-0.3,0.4-0.5,0.7-0.5,0.8c0,0,0.3,0,0.6,0h0.6L101.8,10.3z"/>
	<path class="st2" d="M51.2,30.1c-0.4-0.2-0.6-0.7-0.6-1.6c0-1.2,0.2-1.8,0.9-2c0.5-0.2,1.1,0,1.5,0.6c0.2,0.3,0.2,0.4,0.2,1.3
		c0,1.1-0.1,1.4-0.6,1.8C52.1,30.3,51.5,30.3,51.2,30.1z"/>
	<path class="st2" d="M62,30.1c-0.4-0.2-0.6-0.7-0.6-1.6c0-1.2,0.2-1.8,0.9-2c0.5-0.2,1.1,0,1.5,0.6c0.2,0.3,0.2,0.4,0.2,1.3
		c0,1.1-0.1,1.4-0.6,1.8C63,30.3,62.4,30.3,62,30.1z"/>
	<path class="st2" d="M91.5,30.1c-0.1-0.1-0.3-0.3-0.4-0.5c-0.2-0.3-0.2-0.5-0.2-1.3c0-0.8,0-0.9,0.2-1.2c0.3-0.5,0.5-0.7,1.1-0.7
		c0.3,0,0.5,0,0.7,0.2c0.4,0.3,0.5,0.6,0.6,1.6c0,1-0.1,1.4-0.4,1.7c-0.2,0.2-0.3,0.2-0.7,0.2C91.9,30.2,91.7,30.2,91.5,30.1z"/>
	<path class="st2" d="M46.4,29.4v-0.9h0.7c0.8,0,1.1,0.1,1.2,0.4c0,0.1,0.1,0.2,0.1,0.3c0,0,0,0.2,0,0.4c-0.1,0.4-0.4,0.5-1.2,0.6
		l-0.7,0V29.4z"/>
	<path class="st2" d="M46.4,27.2v-0.7h0.7c0.4,0,0.7,0,0.8,0.1c0.5,0.2,0.5,1,0,1.3c-0.1,0.1-0.4,0.1-0.8,0.1h-0.6V27.2z"/>
	<path class="st2" d="M47.5,18.2v-1.4H48h0.5v-0.6v-0.6H48h-0.5V14v-1.5l0.7,0c0.7,0,0.9,0.1,1.1,0.4c0.1,0.3,0.1,5.9,0,6.1
		c-0.1,0.3-0.3,0.4-1.1,0.4l-0.7,0V18.2z"/>
	<path class="st2" d="M54.2,17.6c0-0.1,0.2-1.1,0.4-2.4L55,13l0.4,2.3c0.2,1.3,0.4,2.3,0.4,2.4c0,0-0.4,0.1-0.8,0.1
		C54.4,17.7,54.2,17.7,54.2,17.6z"/>
	<path class="st2" d="M63.6,18.2v-1.4h0.5h0.5v-0.6v-0.6h-0.5h-0.5V14v-1.5l0.7,0c0.7,0,0.9,0.1,1.1,0.4c0.1,0.3,0.1,5.9,0,6.1
		c-0.1,0.3-0.3,0.4-1.1,0.4l-0.7,0V18.2z"/>
	<path class="st2" d="M70.3,17.7c0-0.1,0.8-4.7,0.8-4.6c0,0.2,0.8,4.4,0.8,4.5s-0.1,0.1-0.8,0.1C70.6,17.8,70.3,17.8,70.3,17.7z"/>
</g>
</svg>
